<?xml version="1.0" encoding="utf-8"?>
<!-- Generator: Adobe Illustrator 21.1.0, SVG Export Plug-In . SVG Version: 6.00 Build 0)  -->
<svg version="1.1" id="Слой_1" xmlns="http://www.w3.org/2000/svg" xmlns:xlink="http://www.w3.org/1999/xlink" x="0px" y="0px"
	 viewBox="0 0 74.4 64.4" style="enable-background:new 0 0 74.4 64.4;" xml:space="preserve">
<style type="text/css">
	.st0{fill:#124E91;}
	.st1{fill:#1D1D1B;}
</style>
<g id="Слой_4">
</g>
<g id="Слой_2">
</g>
<g id="Слой_3">
	<g>
		<g>
			<g>
				<g>
					<path class="st0" d="M23.2,10.3c-0.2,0-0.3-0.1-0.5-0.2L11.8,1.6c-0.3-0.3-0.4-0.8-0.1-1.1s0.8-0.4,1.1-0.1l10.9,8.5
						c0.3,0.3,0.4,0.8,0.1,1.1C23.7,10.2,23.4,10.3,23.2,10.3z"/>
				</g>
				<g>
					<path class="st0" d="M23.2,19.4c-0.2,0-0.3-0.1-0.5-0.2l-11.1-8.7c-0.3-0.3-0.4-0.8-0.1-1.1c0.3-0.3,0.8-0.4,1.1-0.1L23.7,18
						c0.3,0.3,0.4,0.8,0.1,1.1C23.7,19.3,23.5,19.4,23.2,19.4z"/>
				</g>
				<g>
					<path class="st0" d="M23.2,28.5c-0.2,0-0.3-0.1-0.5-0.2l-11.1-8.7c-0.3-0.3-0.4-0.8-0.1-1.1c0.3-0.3,0.8-0.4,1.1-0.1l11.1,8.7
						c0.3,0.3,0.4,0.8,0.1,1.1C23.7,28.3,23.5,28.5,23.2,28.5z"/>
				</g>
				<g>
					<path class="st0" d="M23.2,37.4c-0.2,0-0.3-0.1-0.5-0.2l-11-8.5c-0.3-0.3-0.4-0.8-0.1-1.1s0.8-0.4,1.1-0.1l11,8.5
						c0.3,0.3,0.4,0.8,0.1,1.1C23.7,37.3,23.4,37.4,23.2,37.4z"/>
				</g>
				<g>
					<path class="st0" d="M24.4,46.6c-0.2,0-0.3,0-0.5-0.1l-12.2-8.7c-0.4-0.2-0.4-0.7-0.2-1.1c0.2-0.4,0.7-0.4,1.1-0.2l12.3,8.7
						c0.4,0.2,0.4,0.7,0.2,1.1C24.9,46.5,24.7,46.6,24.4,46.6z"/>
				</g>
				<g>
					<path class="st0" d="M25.5,55.4c-0.1,0-0.3,0-0.4-0.1l-14.4-8.7c-0.4-0.2-0.5-0.7-0.3-1.1c0.2-0.4,0.7-0.5,1.1-0.3l14.4,8.7
						c0.4,0.2,0.5,0.7,0.3,1.1C26.1,55.3,25.8,55.4,25.5,55.4z"/>
				</g>
				<g>
					<path class="st0" d="M26.9,64.4c-0.1,0-0.2,0-0.4-0.1L9.6,55.5c-0.4-0.2-0.5-0.7-0.3-1.1s0.7-0.5,1.1-0.3l16.8,8.8
						c0.4,0.2,0.5,0.7,0.3,1.1C27.4,64.2,27.1,64.4,26.9,64.4z"/>
				</g>
			</g>
			<g>
				<path class="st1" d="M23.2,38.1c-0.4,0-0.8-0.3-0.8-0.8V1.6h-9.6v35.7c0,0.4-0.3,0.8-0.8,0.8s-0.8-0.3-0.8-0.8V0.8
					C11.2,0.4,11.5,0,12,0h11.2C23.6,0,24,0.3,24,0.8v36.5C24,37.7,23.6,38.1,23.2,38.1z"/>
			</g>
			<g>
				<path class="st1" d="M8.7,64.4L8.7,64.4c-0.5-0.1-0.8-0.5-0.8-0.9l3.4-26.3c0.1-0.4,0.5-0.7,0.9-0.7c0.4,0.1,0.7,0.4,0.7,0.9
					L9.6,63.7C9.5,64.1,9.1,64.4,8.7,64.4z"/>
			</g>
			<g>
				<path class="st1" d="M26.9,64.4c-0.4,0-0.7-0.3-0.8-0.7l-3.7-26.3c-0.1-0.4,0.2-0.8,0.7-0.9c0.4-0.1,0.8,0.2,0.9,0.7l3.7,26.3
					C27.8,63.9,27.5,64.3,26.9,64.4C26.9,64.4,26.9,64.4,26.9,64.4z"/>
			</g>
			<g>
				<path class="st1" d="M34.5,10.3c-0.2,0-0.3-0.1-0.5-0.2L22.9,1.4c-0.3-0.3-0.4-0.8-0.1-1.1s0.8-0.4,1.1-0.1L35,8.9
					c0.3,0.3,0.4,0.8,0.1,1.1C34.9,10.2,34.7,10.3,34.5,10.3z"/>
			</g>
			<g>
				<path class="st1" d="M12.1,10.3c-0.2,0-0.5-0.1-0.6-0.3c-0.3-0.3-0.2-0.8,0.1-1.1l11.1-8.7C23-0.1,23.5,0,23.8,0.3
					s0.2,0.8-0.1,1.1l-11.1,8.7C12.4,10.2,12.2,10.3,12.1,10.3z"/>
			</g>
			<g>
				<path class="st1" d="M0.9,10.2c-0.2,0-0.5-0.1-0.6-0.3C0,9.6,0.1,9.1,0.4,8.8l11.2-8.6c0.3-0.3,0.8-0.2,1.1,0.1
					c0.3,0.3,0.2,0.8-0.1,1.1L1.4,10.1C1.2,10.2,1.1,10.2,0.9,10.2z"/>
			</g>
			<g>
				<path class="st1" d="M34.5,10.3H1c-0.4,0-0.8-0.3-0.8-0.8S0.5,8.7,1,8.7h33.5c0.4,0,0.8,0.3,0.8,0.8S34.9,10.3,34.5,10.3z"/>
			</g>
			<g>
				<path class="st1" d="M34.5,28.5c-0.2,0-0.3-0.1-0.5-0.2l-11.1-8.7c-0.3-0.3-0.4-0.8-0.1-1.1c0.3-0.3,0.8-0.4,1.1-0.1L35,27.1
					c0.3,0.3,0.4,0.8,0.1,1.1C35,28.3,34.8,28.5,34.5,28.5z"/>
			</g>
			<g>
				<path class="st1" d="M12.1,28.5c-0.2,0-0.5-0.1-0.6-0.3c-0.3-0.3-0.2-0.8,0.1-1.1l11.1-8.7c0.3-0.3,0.8-0.2,1.1,0.1
					s0.2,0.8-0.1,1.1l-11.1,8.7C12.5,28.4,12.3,28.5,12.1,28.5z"/>
			</g>
			<g>
				<path class="st1" d="M0.9,28.4c-0.2,0-0.5-0.1-0.6-0.3C0,27.8,0.1,27.3,0.4,27l11.1-8.7c0.3-0.3,0.8-0.2,1.1,0.1
					c0.3,0.3,0.2,0.8-0.1,1.1L1.4,28.3C1.3,28.4,1.1,28.4,0.9,28.4z"/>
			</g>
			<g>
				<path class="st1" d="M34.5,28.5H1c-0.4,0-0.8-0.3-0.8-0.8s0.3-0.8,0.8-0.8h33.5c0.4,0,0.8,0.3,0.8,0.8S35,28.5,34.5,28.5z"/>
			</g>
			<g>
				<path class="st1" d="M12.1,19.4c-0.2,0-0.5-0.1-0.6-0.3c-0.3-0.3-0.2-0.8,0.1-1.1l11.1-8.7C23,9,23.5,9.1,23.8,9.4
					c0.3,0.3,0.2,0.8-0.1,1.1l-11.1,8.7C12.5,19.3,12.3,19.4,12.1,19.4z"/>
			</g>
			<g>
				<path class="st1" d="M23.3,19.4H12.1c-0.4,0-0.8-0.3-0.8-0.8s0.3-0.8,0.8-0.8h11.1c0.4,0,0.8,0.3,0.8,0.8S23.7,19.4,23.3,19.4z"
					/>
			</g>
			<g>
				<path class="st1" d="M12.2,37.5c-0.2,0-0.4-0.1-0.6-0.3c-0.3-0.3-0.2-0.8,0.1-1.1l11-9.1c0.3-0.3,0.8-0.2,1.1,0.1
					s0.2,0.8-0.1,1.1l-11,9.1C12.6,37.5,12.4,37.5,12.2,37.5z"/>
			</g>
			<g>
				<path class="st1" d="M23.2,37.5h-11c-0.4,0-0.8-0.3-0.8-0.8s0.3-0.8,0.8-0.8h11c0.4,0,0.8,0.3,0.8,0.8S23.6,37.5,23.2,37.5z"/>
			</g>
			<g>
				<path class="st1" d="M11.1,46.6c-0.2,0-0.5-0.1-0.6-0.3c-0.3-0.3-0.2-0.8,0.2-1.1l12.1-8.9c0.3-0.3,0.8-0.2,1.1,0.2
					c0.3,0.3,0.2,0.8-0.2,1.1l-12.1,8.9C11.4,46.6,11.3,46.6,11.1,46.6z"/>
			</g>
			<g>
				<path class="st1" d="M24.4,46.6H11.1c-0.4,0-0.8-0.3-0.8-0.8s0.3-0.8,0.8-0.8h13.3c0.4,0,0.8,0.3,0.8,0.8S24.8,46.6,24.4,46.6z"
					/>
			</g>
			<g>
				<path class="st1" d="M9.9,55.4c-0.3,0-0.5-0.1-0.7-0.4c-0.2-0.4-0.1-0.8,0.3-1.1l14.4-8.7c0.4-0.2,0.8-0.1,1.1,0.3
					c0.2,0.4,0.1,0.8-0.3,1.1l-14.4,8.7C10.1,55.4,10,55.4,9.9,55.4z"/>
			</g>
			<g>
				<path class="st1" d="M25.5,55.4H9.9c-0.4,0-0.8-0.3-0.8-0.8s0.3-0.8,0.8-0.8h15.7c0.4,0,0.8,0.3,0.8,0.8S26,55.4,25.5,55.4z"/>
			</g>
			<g>
				<path class="st1" d="M8.7,64.4c-0.3,0-0.6-0.2-0.7-0.4c-0.2-0.4,0-0.9,0.3-1.1L25,54.2c0.4-0.2,0.9,0,1.1,0.3
					c0.2,0.4,0,0.9-0.3,1.1L9.1,64.3C9,64.3,8.9,64.4,8.7,64.4z"/>
			</g>
			<g>
				<path class="st1" d="M73.6,64.4H2.2c-0.4,0-0.8-0.3-0.8-0.8c0-0.5,0.3-0.8,0.8-0.8h71.4c0.4,0,0.8,0.3,0.8,0.8
					C74.4,64.1,74.1,64.4,73.6,64.4z"/>
			</g>
			<g>
				<path class="st1" d="M1.2,15.4L1.2,15.4c-0.5,0-0.9-0.4-0.9-0.9v-2.4c0-0.5,0.4-0.9,0.9-0.9l0,0c0.5,0,0.9,0.4,0.9,0.9v2.4
					C2.1,15,1.7,15.4,1.2,15.4z"/>
				<path class="st1" d="M1.2,15.7c-0.7,0-1.2-0.6-1.2-1.2v-2.4c0-0.7,0.6-1.2,1.2-1.2c0.7,0,1.2,0.6,1.2,1.2v2.4
					C2.4,15.2,1.9,15.7,1.2,15.7z M1.2,11.4c-0.4,0-0.7,0.3-0.7,0.7v2.4c0,0.4,0.3,0.7,0.7,0.7s0.7-0.3,0.7-0.7v-2.4
					C1.9,11.7,1.6,11.4,1.2,11.4z"/>
			</g>
			<g>
				<path class="st1" d="M34.5,15.4L34.5,15.4c-0.5,0-0.9-0.4-0.9-0.9v-2.4c0-0.5,0.4-0.9,0.9-0.9l0,0c0.5,0,0.9,0.4,0.9,0.9v2.4
					C35.4,15,35,15.4,34.5,15.4z"/>
				<path class="st1" d="M34.5,15.7c-0.7,0-1.2-0.6-1.2-1.2v-2.4c0-0.7,0.6-1.2,1.2-1.2s1.2,0.6,1.2,1.2v2.4
					C35.7,15.2,35.2,15.7,34.5,15.7z M34.5,11.4c-0.4,0-0.7,0.3-0.7,0.7v2.4c0,0.4,0.3,0.7,0.7,0.7s0.7-0.3,0.7-0.7v-2.4
					C35.1,11.7,34.8,11.4,34.5,11.4z"/>
			</g>
			<g>
				<path class="st1" d="M1.2,11.9c-0.4,0-0.8-0.3-0.8-0.8V9.4c0-0.4,0.3-0.8,0.8-0.8S2,8.9,2,9.4v1.8C1.9,11.6,1.6,11.9,1.2,11.9z"
					/>
			</g>
			<g>
				<path class="st1" d="M34.5,11.9c-0.4,0-0.8-0.3-0.8-0.8V9.4c0-0.4,0.3-0.8,0.8-0.8s0.8,0.3,0.8,0.8v1.8
					C35.3,11.6,34.9,11.9,34.5,11.9z"/>
			</g>
			<g>
				<path class="st1" d="M1.2,33.6L1.2,33.6c-0.5,0-0.9-0.4-0.9-0.9v-2.4c0-0.5,0.4-0.9,0.9-0.9l0,0c0.5,0,0.9,0.4,0.9,0.9v2.4
					C2.1,33.2,1.7,33.6,1.2,33.6z"/>
				<path class="st1" d="M1.2,33.9c-0.7,0-1.2-0.6-1.2-1.2v-2.4c0-0.7,0.6-1.2,1.2-1.2c0.7,0,1.2,0.6,1.2,1.2v2.4
					C2.4,33.4,1.9,33.9,1.2,33.9z M1.2,29.6c-0.4,0-0.7,0.3-0.7,0.7v2.4c0,0.4,0.3,0.7,0.7,0.7s0.7-0.3,0.7-0.7v-2.4
					C1.9,29.9,1.6,29.6,1.2,29.6z"/>
			</g>
			<g>
				<path class="st1" d="M34.5,33.6L34.5,33.6c-0.5,0-0.9-0.4-0.9-0.9v-2.4c0-0.5,0.4-0.9,0.9-0.9l0,0c0.5,0,0.9,0.4,0.9,0.9v2.4
					C35.4,33.2,35,33.6,34.5,33.6z"/>
				<path class="st1" d="M34.5,33.9c-0.7,0-1.2-0.6-1.2-1.2v-2.4c0-0.7,0.6-1.2,1.2-1.2s1.2,0.6,1.2,1.2v2.4
					C35.7,33.4,35.2,33.9,34.5,33.9z M34.5,29.6c-0.4,0-0.7,0.3-0.7,0.7v2.4c0,0.4,0.3,0.7,0.7,0.7s0.7-0.3,0.7-0.7v-2.4
					C35.1,29.9,34.8,29.6,34.5,29.6z"/>
			</g>
			<g>
				<path class="st1" d="M1.2,30.1c-0.4,0-0.8-0.3-0.8-0.8v-1.7c0-0.4,0.3-0.8,0.8-0.8S2,27.1,2,27.6v1.7
					C1.9,29.8,1.6,30.1,1.2,30.1z"/>
			</g>
			<g>
				<path class="st1" d="M34.5,30.1c-0.4,0-0.8-0.3-0.8-0.8v-1.7c0-0.4,0.3-0.8,0.8-0.8s0.8,0.3,0.8,0.8v1.7
					C35.3,29.8,34.9,30.1,34.5,30.1z"/>
			</g>
		</g>
		<g>
			<g>
				<path class="st1" d="M67.7,64.2H43.1c-0.4,0-0.8-0.3-0.8-0.8V51.9c0-0.4,0.3-0.8,0.8-0.8h24.6c0.4,0,0.8,0.3,0.8,0.8v11.5
					C68.5,63.8,68.1,64.2,67.7,64.2z M43.9,62.6h23v-10h-23C43.9,52.6,43.9,62.6,43.9,62.6z"/>
			</g>
			<g>
				<path class="st1" d="M68.9,52.6h-27c-0.4,0-0.8-0.3-0.8-0.8v-3.2c0-0.4,0.3-0.8,0.8-0.8h26.9c0.4,0,0.8,0.3,0.8,0.8v3.2
					C69.6,52.3,69.3,52.6,68.9,52.6z M42.7,51.1h25.4v-1.6H42.7V51.1z"/>
			</g>
			<g>
				<path class="st1" d="M62.3,49.4H43.8c-0.4,0-0.8-0.3-0.8-0.8v-7.7c0-0.4,0.3-0.8,0.8-0.8h18.5c0.4,0,0.8,0.3,0.8,0.8v7.7
					C63,49.1,62.7,49.4,62.3,49.4z M44.6,47.9h16.9v-6.2H44.6V47.9z"/>
			</g>
			<g>
				<path class="st1" d="M63.1,41.7H42.9c-0.4,0-0.8-0.3-0.8-0.8v-3.3c0-0.4,0.3-0.8,0.8-0.8h20.2c0.4,0,0.8,0.3,0.8,0.8v3.3
					C63.9,41.4,63.6,41.7,63.1,41.7z M43.7,40.2h18.7v-1.8H43.7V40.2z"/>
			</g>
			<g>
				<g>
					<g>
						<path class="st1" d="M45.7,31.5L45.7,31.5c0.5,0,0.9,0.4,0.9,0.9v2.4c0,0.5-0.4,0.9-0.9,0.9l0,0c-0.5,0-0.9-0.4-0.9-0.9v-2.4
							C44.7,31.9,45.2,31.5,45.7,31.5z"/>
						<path class="st1" d="M45.7,36c-0.7,0-1.2-0.6-1.2-1.2v-2.4c0-0.7,0.6-1.2,1.2-1.2c0.7,0,1.2,0.6,1.2,1.2v2.4
							C46.9,35.5,46.3,36,45.7,36z M45.7,31.8c-0.4,0-0.7,0.3-0.7,0.7v2.4c0,0.4,0.3,0.7,0.7,0.7s0.7-0.3,0.7-0.7v-2.4
							C46.3,32.1,46,31.8,45.7,31.8z"/>
					</g>
					<g>
						<path class="st1" d="M45.7,38.2c-0.4,0-0.8-0.3-0.8-0.8v-7c0-0.4,0.3-0.8,0.8-0.8s0.8,0.3,0.8,0.8v7
							C46.5,37.9,46.1,38.2,45.7,38.2z"/>
					</g>
				</g>
			</g>
			<g>
				<g>
					<g>
						<path class="st1" d="M51.1,31.5L51.1,31.5c0.5,0,0.9,0.4,0.9,0.9v2.4c0,0.5-0.4,0.9-0.9,0.9l0,0c-0.5,0-0.9-0.4-0.9-0.9v-2.4
							C50.2,31.9,50.6,31.5,51.1,31.5z"/>
						<path class="st1" d="M51.1,36c-0.7,0-1.2-0.6-1.2-1.2v-2.4c0-0.7,0.6-1.2,1.2-1.2s1.2,0.6,1.2,1.2v2.4
							C52.3,35.5,51.8,36,51.1,36z M51.1,31.8c-0.4,0-0.7,0.3-0.7,0.7v2.4c0,0.4,0.3,0.7,0.7,0.7s0.7-0.3,0.7-0.7v-2.4
							C51.8,32.1,51.5,31.8,51.1,31.8z"/>
					</g>
					<g>
						<path class="st1" d="M51.1,38.2c-0.4,0-0.8-0.3-0.8-0.8v-7c0-0.4,0.3-0.8,0.8-0.8s0.8,0.3,0.8,0.8v7
							C51.9,37.9,51.5,38.2,51.1,38.2z"/>
					</g>
				</g>
			</g>
			<g>
				<g>
					<g>
						<path class="st1" d="M56.6,31.5L56.6,31.5c0.5,0,0.9,0.4,0.9,0.9v2.4c0,0.5-0.4,0.9-0.9,0.9l0,0c-0.5,0-0.9-0.4-0.9-0.9v-2.4
							C55.6,31.9,56,31.5,56.6,31.5z"/>
						<path class="st1" d="M56.6,36c-0.7,0-1.2-0.6-1.2-1.2v-2.4c0-0.7,0.6-1.2,1.2-1.2c0.7,0,1.2,0.6,1.2,1.2v2.4
							C57.8,35.5,57.2,36,56.6,36z M56.6,31.8c-0.4,0-0.7,0.3-0.7,0.7v2.4c0,0.4,0.3,0.7,0.7,0.7s0.7-0.3,0.7-0.7v-2.4
							C57.2,32.1,56.9,31.8,56.6,31.8z"/>
					</g>
					<g>
						<path class="st1" d="M56.6,38.2c-0.4,0-0.8-0.3-0.8-0.8v-7c0-0.4,0.3-0.8,0.8-0.8s0.8,0.3,0.8,0.8v7
							C57.3,37.9,57,38.2,56.6,38.2z"/>
					</g>
				</g>
			</g>
			<g>
				<rect x="47.1" y="43.1" class="st0" width="2" height="2.9"/>
			</g>
			<g>
				<rect x="51.4" y="43.1" class="st0" width="2" height="2.9"/>
			</g>
			<g>
				<rect x="55.7" y="43.1" class="st0" width="2" height="2.9"/>
			</g>
			<g>
				<rect x="47.1" y="54.3" class="st0" width="2.3" height="6.4"/>
			</g>
			<g>
				<rect x="52.1" y="54.3" class="st0" width="2.3" height="6.4"/>
			</g>
			<g>
				<rect x="57" y="54.3" class="st0" width="2.3" height="6.4"/>
			</g>
			<g>
				<rect x="61.8" y="54.3" class="st0" width="2.3" height="6.4"/>
			</g>
		</g>
	</g>
</g>
</svg>
