<?xml version="1.0" encoding="utf-8"?>
<!-- Generator: Adobe Illustrator 21.1.0, SVG Export Plug-In . SVG Version: 6.00 Build 0)  -->
<svg version="1.1" id="Слой_1" xmlns="http://www.w3.org/2000/svg" xmlns:xlink="http://www.w3.org/1999/xlink" x="0px" y="0px"
	 viewBox="0 0 54.8 61.2" style="enable-background:new 0 0 54.8 61.2;" xml:space="preserve">
<style type="text/css">
	.st0{fill:#FFFFFF;}
</style>
<g id="Слой_4">
</g>
<g id="Слой_1_1_">
</g>
<g id="Слой_2">
</g>
<g id="Слой_3">
	<g>
		<g>
			<g>
				<path class="st0" d="M3.3,17.9c-0.4,0-0.8-0.4-0.8-0.8V1.4c0-0.4,0.3-0.8,0.8-0.8L40.8,0c0.2,0,0.4,0.1,0.6,0.2s0.2,0.4,0.2,0.6
					v15.8c0,0.4-0.4,0.8-0.8,0.8c-0.4,0-0.8-0.4-0.8-0.8v-15L4.1,2.2v15C4,17.6,3.7,17.9,3.3,17.9z"/>
			</g>
			<g>
				<path class="st0" d="M21,53.8H2.6c-0.4,0-0.8-0.4-0.8-0.8V37.2c0-0.4,0.4-0.8,0.8-0.8s0.8,0.4,0.8,0.8v15h17.5
					c0.4,0,0.8,0.4,0.8,0.8S21.4,53.8,21,53.8z"/>
			</g>
			<g>
				<path class="st0" d="M32.7,38H3c-1.6,0-3-1.3-3-3V18.7c0-1.4,1.4-2.3,3.6-2.3l36.7-0.6c1.6,0,3,1.3,3,3v13
					c0,0.4-0.4,0.8-0.8,0.8c-0.4,0-0.8-0.4-0.8-0.8v-13c0-0.8-0.6-1.4-1.4-1.4L3.6,18c-1,0-2,0.3-2,0.8v16.4c0,0.8,0.6,1.4,1.4,1.4
					h29.7c0.4,0,0.8,0.4,0.8,0.8C33.5,37.8,33.2,38,32.7,38z"/>
			</g>
			<g>
				<path class="st0" d="M7.9,17.6c-0.4,0-0.8-0.4-0.8-0.8V1.4c0-0.4,0.4-0.8,0.8-0.8S8.7,1,8.7,1.4v15.4
					C8.6,17.2,8.3,17.6,7.9,17.6z"/>
			</g>
			<g>
				<path class="st0" d="M36.2,16.9c-0.4,0-0.8-0.4-0.8-0.8V1.6c0-0.4,0.4-0.8,0.8-0.8c0.4,0,0.8,0.4,0.8,0.8v14.6
					C37,16.5,36.6,16.9,36.2,16.9z"/>
			</g>
			<g>
				<path class="st0" d="M7.5,53.5c-0.4,0-0.8-0.4-0.8-0.8V37.3c0-0.4,0.4-0.8,0.8-0.8s0.8,0.4,0.8,0.8v15.4
					C8.3,53.2,7.9,53.5,7.5,53.5z"/>
			</g>
			<g>
				<g>
					<path class="st0" d="M24.9,29.1H4.2c-0.4,0-0.8-0.4-0.8-0.8v-6.9c0-0.4,0.4-0.8,0.8-0.8h20.7c0.4,0,0.8,0.4,0.8,0.8v6.9
						C25.7,28.7,25.3,29.1,24.9,29.1z M5,27.5h19.1v-5.3H5V27.5z"/>
				</g>
				<g>
					<path class="st0" d="M36.5,30.4h-4.9c-1.9,0-3.4-1.5-3.4-3.4v-4.1c0-1.9,1.5-3.4,3.4-3.4h4.9c1.9,0,3.4,1.5,3.4,3.4V27
						C40,28.8,38.4,30.4,36.5,30.4z M31.6,20.9c-1,0-1.9,0.8-1.9,1.9v4.1c0,1,0.8,1.9,1.9,1.9h4.9c1,0,1.9-0.8,1.9-1.9v-4.1
						c0-1-0.8-1.9-1.9-1.9H31.6z"/>
				</g>
				<g>
					<g>
						<circle class="st0" cx="32.6" cy="25.2" r="0.9"/>
					</g>
					<g>
						<circle class="st0" cx="35.6" cy="25.2" r="0.9"/>
					</g>
				</g>
			</g>
			<g>
				<path class="st0" d="M27.3,13H15.5c-0.4,0-0.8-0.4-0.8-0.8s0.4-0.8,0.8-0.8h11.9c0.4,0,0.8,0.4,0.8,0.8S27.8,13,27.3,13z"/>
			</g>
			<g>
				<path class="st0" d="M31.1,42.3H19.3c-0.4,0-0.8-0.4-0.8-0.8c0-0.4,0.4-0.8,0.8-0.8h11.9c0.4,0,0.8,0.4,0.8,0.8
					C32,41.9,31.6,42.3,31.1,42.3z"/>
			</g>
			<g>
				<circle class="st0" cx="37.4" cy="33.4" r="1.6"/>
			</g>
			<g>
				<circle class="st0" cx="31.5" cy="33.3" r="1.3"/>
			</g>
			<g>
				<rect x="6.1" y="23.1" class="st0" width="1.6" height="3.3"/>
			</g>
			<g>
				<rect x="8.7" y="23.1" class="st0" width="1.6" height="3.3"/>
			</g>
			<g>
				<rect x="11.3" y="23.1" class="st0" width="1.6" height="3.3"/>
			</g>
			<g>
				<rect x="13.8" y="23.1" class="st0" width="1.6" height="3.3"/>
			</g>
			<g>
				<rect x="16.4" y="23.1" class="st0" width="1.6" height="3.3"/>
			</g>
			<g>
				<rect x="18.9" y="23.1" class="st0" width="1.6" height="3.3"/>
			</g>
			<g>
				<rect x="21.5" y="23.1" class="st0" width="1.6" height="3.3"/>
			</g>
		</g>
		<g>
			<g>
				<g>
					<path class="st0" d="M46.4,54.8C46.3,54.8,46.3,54.8,46.4,54.8c-0.6,0-0.8-0.2-1-0.4c-0.1-0.1-0.1-0.2-0.7-1.6
						c-0.7,0-1.4,0-2.1-0.2c-1.1,1.5-1.2,1.6-1.6,1.6c-0.9,0.1-2.1-0.6-2.5-1.1c-0.3-0.4-0.4-0.7-0.3-0.9c0-0.1,0-0.2,0.6-1.6
						c-0.5-0.5-1-1-1.4-1.7c-1.7,0.3-1.9,0.2-2.2,0l0,0c-0.7-0.6-1.1-1.9-1-2.5c0-0.5,0.2-0.8,0.4-0.9c0.1-0.1,0.2-0.1,1.5-0.7
						c0-0.7,0-1.5,0.2-2.2c-1.4-1-1.5-1.2-1.5-1.5c-0.1-0.9,0.6-2.1,1.1-2.5c0.4-0.3,0.7-0.4,0.9-0.3c0.1,0,0.2,0,1.5,0.6
						c0.5-0.5,1-0.9,1.6-1.3L39.6,36c-0.1-0.4,0.1-0.7,0.4-0.9c2.3-1.1,2.7-0.8,3-0.5c0.2,0.2,0.6,1,1,1.8c0.7,0,1.5,0,2.2,0.2
						l0.9-1.4c0.2-0.3,0.6-0.4,0.9-0.3c2.4,0.9,2.5,1.4,2.5,1.8c0,0.2,0,0.3-0.6,2c0.5,0.5,1,1,1.4,1.6l1.8-0.4
						c0.4-0.1,0.7,0.1,0.9,0.4c1.1,2.3,0.8,2.8,0.5,3c-0.1,0.1-0.2,0.2-1.9,1c0,0.7,0,1.4-0.2,2c0.9,0.6,1.5,1,1.5,1
						c0.3,0.2,0.4,0.6,0.3,0.9c-0.8,2.3-1.3,2.4-1.6,2.4c-0.2,0-0.3,0-2.1-0.6c-0.5,0.6-1.1,1-1.7,1.4c0.3,1.9,0.3,2,0,2.3
						C48.3,54.4,47,54.8,46.4,54.8z M45.2,51.1c0.3,0,0.6,0.2,0.7,0.5c0.3,0.9,0.5,1.3,0.7,1.6c0.3,0,0.6-0.2,0.9-0.3
						c0-0.3-0.1-0.8-0.3-1.7c-0.1-0.3,0.1-0.7,0.4-0.8c0.8-0.4,1.5-1,2.1-1.8c0.2-0.3,0.6-0.4,0.9-0.2c0.9,0.3,1.4,0.5,1.7,0.6
						c0.1-0.2,0.2-0.5,0.4-0.8c-0.4-0.2-0.9-0.6-1.5-1c-0.3-0.2-0.4-0.5-0.3-0.9c0.2-0.8,0.3-1.7,0.2-2.6c0-0.3,0.1-0.7,0.5-0.8
						c0.9-0.4,1.3-0.6,1.6-0.8c-0.1-0.2-0.2-0.5-0.3-0.8l-1.8,0.3c-0.3,0.1-0.7-0.1-0.9-0.4c-0.4-0.8-1-1.5-1.7-2
						c-0.3-0.2-0.4-0.6-0.2-0.9c0.3-0.9,0.5-1.3,0.6-1.6c-0.2-0.1-0.5-0.2-0.8-0.4l-0.9,1.4C47,38,46.6,38.1,46.3,38
						c-0.9-0.3-1.8-0.3-2.7-0.2c-0.3,0-0.7-0.1-0.8-0.5c-0.3-0.7-0.6-1.2-0.7-1.5c-0.2,0.1-0.5,0.2-0.8,0.3l0.3,1.6
						c0.1,0.3-0.1,0.7-0.4,0.9c-0.8,0.4-1.4,1-2,1.6c-0.2,0.3-0.6,0.4-0.9,0.2c-0.8-0.3-1.2-0.5-1.5-0.6c-0.2,0.2-0.3,0.6-0.4,0.8
						c0.2,0.2,0.6,0.4,1.3,0.9c0.3,0.2,0.4,0.6,0.3,0.9c-0.3,0.9-0.4,1.8-0.3,2.7c0,0.3-0.2,0.7-0.5,0.8c-0.8,0.3-1.2,0.5-1.5,0.6
						c0,0.3,0.2,0.6,0.3,0.9c0.2,0,0.7-0.1,1.6-0.2c0.3-0.1,0.7,0.1,0.8,0.4c0.4,0.8,1,1.5,1.7,2c0.3,0.2,0.4,0.6,0.2,0.9
						c-0.3,0.8-0.5,1.3-0.6,1.5c0.2,0.2,0.6,0.3,0.8,0.4c0.2-0.2,0.5-0.6,1-1.4c0.2-0.3,0.5-0.4,0.9-0.3
						C43.4,51.1,44.2,51.2,45.2,51.1C45.1,51.1,45.2,51.1,45.2,51.1z M44.4,49.2c-0.8,0-1.5-0.2-2.2-0.6c-1.1-0.6-1.9-1.6-2.3-2.8
						c-0.4-1.2-0.2-2.5,0.4-3.6c0.6-1.1,1.6-1.9,2.8-2.3c1.2-0.4,2.5-0.2,3.6,0.4c1.1,0.6,1.9,1.6,2.3,2.8c0.4,1.2,0.2,2.5-0.4,3.6
						S47,48.6,45.8,49C45.3,49.1,44.8,49.2,44.4,49.2z M44.4,41.3c-0.3,0-0.6,0-0.9,0.1l0,0c-0.8,0.2-1.5,0.8-1.9,1.5
						c-0.4,0.7-0.5,1.6-0.2,2.4c0.2,0.8,0.8,1.5,1.5,1.9c0.7,0.4,1.6,0.5,2.4,0.2c0.8-0.2,1.5-0.8,1.9-1.5c0.4-0.7,0.5-1.6,0.2-2.4
						s-0.8-1.5-1.5-1.9C45.4,41.4,44.9,41.3,44.4,41.3z M43.3,40.6L43.3,40.6L43.3,40.6z"/>
				</g>
			</g>
			<g>
				<g>
					<path class="st0" d="M31.1,61.2c-0.2,0-0.5-0.1-0.6-0.3c-0.4-0.5-0.8-0.9-1.2-0.8c-0.4,0-0.7,0.4-0.7,0.4
						c-0.2,0.2-0.4,0.4-0.7,0.3c-1.1-0.1-2.3-1.5-2.7-1.9C25,58.7,25,58.4,25,58.2c0.2-0.7,0.2-1.3,0-1.6c-0.2-0.2-0.5-0.2-0.5-0.2
						l0,0c-0.4,0-0.7-0.2-0.8-0.6C23.2,54,24,52.6,24,52.5c0.1-0.2,0.3-0.3,0.5-0.4c0.7-0.2,1.1-0.4,1.2-0.7
						c0.1-0.3-0.1-0.6-0.1-0.6c-0.2-0.3-0.2-0.8,0.1-1c1.5-1.3,3-1.4,3.1-1.4c0.3,0,0.6,0.2,0.8,0.5c0.1,0.2,0.3,0.6,0.6,0.6
						s0.8-0.3,1-0.5c0.2-0.2,0.4-0.3,0.6-0.2c1.3,0.1,2.7,1.5,3,1.8c0.3,0.3,0.3,0.7,0,1c-0.3,0.4-0.4,0.7-0.3,0.8
						c0.1,0.3,0.7,0.5,1.1,0.6c0.3,0.1,0.6,0.3,0.6,0.6c0.2,1-0.1,2.8-0.2,3.2c-0.1,0.4-0.5,0.7-0.9,0.6c-0.7-0.1-1,0-1.1,0.1
						c-0.1,0.2,0,0.9,0.2,1.3c0.1,0.3,0.1,0.6-0.1,0.9C33.2,60.9,31.4,61.2,31.1,61.2C31.2,61.2,31.1,61.2,31.1,61.2z M29.3,58.5
						c0.7,0,1.4,0.4,2.1,1.1c0.4-0.1,0.9-0.3,1.4-0.6c-0.2-0.6-0.4-1.6,0.1-2.4c0.4-0.5,1-0.8,1.8-0.8c0.1-0.5,0.1-1,0.1-1.4
						c-0.6-0.2-1.4-0.6-1.7-1.4c-0.2-0.4-0.2-1,0.2-1.8c-0.4-0.3-0.9-0.7-1.2-0.8c-0.4,0.3-1.2,0.8-2,0.7c-0.4-0.1-1-0.3-1.4-1
						c-0.3,0.1-0.8,0.3-1.3,0.6c0.1,0.4,0.1,0.8-0.1,1.3c-0.3,0.7-0.9,1.2-1.9,1.6c-0.1,0.3-0.2,0.8-0.2,1.4
						c0.4,0.1,0.8,0.3,1.1,0.7c0.5,0.6,0.6,1.5,0.4,2.6c0.4,0.4,0.8,0.8,1.1,0.9C28.1,58.9,28.6,58.5,29.3,58.5L29.3,58.5z M30.1,57
						c-0.2,0-0.5,0-0.7-0.1c-0.5-0.2-1-0.6-1.2-1.1c-0.5-1.1,0-2.3,1-2.8l0,0c1.1-0.5,2.3,0,2.8,1c0.2,0.5,0.3,1.1,0.1,1.6
						c-0.2,0.5-0.6,1-1.1,1.2C30.7,56.9,30.4,57,30.1,57z M29.9,54.3c-0.3,0.1-0.4,0.5-0.3,0.8c0.1,0.1,0.2,0.2,0.3,0.3
						c0.1,0.1,0.3,0,0.4,0c0.1-0.1,0.2-0.2,0.3-0.3s0-0.3,0-0.4C30.5,54.3,30.2,54.2,29.9,54.3L29.9,54.3z"/>
				</g>
			</g>
		</g>
	</g>
</g>
</svg>
