<?xml version="1.0" encoding="utf-8"?>
<!-- Generator: Adobe Illustrator 21.1.0, SVG Export Plug-In . SVG Version: 6.00 Build 0)  -->
<svg version="1.1" id="Слой_1" xmlns="http://www.w3.org/2000/svg" xmlns:xlink="http://www.w3.org/1999/xlink" x="0px" y="0px"
	 viewBox="0 0 87 74.4" style="enable-background:new 0 0 87 74.4;" xml:space="preserve">
<style type="text/css">
	.st0{fill:#1D1D1B;}
	.st1{fill:#124E91;}
</style>
<g id="Слой_4">
</g>
<g id="Слой_1_1_">
</g>
<g id="Слой_2">
</g>
<g id="Слой_3">
	<g>
		<g>
			<g>
				<path class="st0" d="M70.8,67.2c-0.4,0-0.8-0.4-0.8-0.8v-4.6h-2.8c-0.4,0-0.8-0.4-0.8-0.8s0.4-0.8,0.8-0.8H70v-4.6
					c0-0.4,0.4-0.8,0.8-0.8h4.9c2,0,3.5,1.6,3.5,3.5c0,2-1.6,3.5-3.5,3.5h-4.1v4.6C71.7,66.9,71.3,67.2,70.8,67.2z M71.7,60.2h4.1
					c1.1,0,1.9-0.9,1.9-1.9s-0.9-1.9-1.9-1.9h-4.1V60.2z"/>
			</g>
			<g>
				<path class="st0" d="M78.2,65.1h-11c-0.4,0-0.8-0.4-0.8-0.8s0.4-0.8,0.8-0.8h11c0.4,0,0.8,0.4,0.8,0.8S78.6,65.1,78.2,65.1z"/>
			</g>
			<g>
				<path class="st0" d="M73.2,74.4c-5.3,0-10-2.9-12.4-7.6c-0.2-0.4,0-0.9,0.4-1.1s0.9,0,1.1,0.4c2.1,4.2,6.3,6.8,10.9,6.8
					c6.7,0,12.2-5.5,12.2-12.2s-5.5-12.2-12.2-12.2S61,54,61,60.7c0,0.4-0.4,0.8-0.8,0.8s-0.8-0.4-0.8-0.8c0-7.6,6.2-13.8,13.8-13.8
					S87,53.1,87,60.7S80.8,74.4,73.2,74.4z"/>
			</g>
			<g>
				<path class="st0" d="M60.2,62.8L60.2,62.8c-0.2,0-0.5-0.1-0.6-0.3l-3.3-3.7C56,58.5,56,58,56.4,57.7c0.3-0.3,0.8-0.3,1.1,0.1
					l2.8,3.1l3.1-3.1c0.3-0.3,0.8-0.3,1.1,0c0.3,0.3,0.3,0.8,0,1.1l-3.7,3.7C60.6,62.7,60.4,62.8,60.2,62.8z"/>
			</g>
		</g>
		<g>
			<path class="st0" d="M78.2,43.5H27.4c-0.4,0-0.8-0.4-0.8-0.8s0.4-0.8,0.8-0.8h50.8c0.4,0,0.8,0.4,0.8,0.8S78.6,43.5,78.2,43.5z"
				/>
		</g>
		<g>
			<path class="st0" d="M56.2,66.4H0.8C0.4,66.4,0,66,0,65.6s0.4-0.8,0.8-0.8h55.3c0.4,0,0.8,0.4,0.8,0.8S56.6,66.4,56.2,66.4z"/>
		</g>
		<g>
			<path class="st0" d="M39.4,66.4c-0.4,0-0.8-0.4-0.8-0.8V43.1c0-0.4,0.4-0.8,0.8-0.8s0.8,0.4,0.8,0.8v22.5
				C40.1,66.1,39.8,66.4,39.4,66.4z"/>
		</g>
		<g>
			<path class="st0" d="M52.4,66.4c-0.4,0-0.8-0.4-0.8-0.8V43.1c0-0.4,0.4-0.8,0.8-0.8s0.8,0.4,0.8,0.8v22.5
				C53.2,66.1,52.9,66.4,52.4,66.4z"/>
		</g>
		<g>
			<path class="st0" d="M74.8,43.6H30.6c-0.4,0-0.8-0.4-0.8-0.8V25.3c0-0.4,0.4-0.8,0.8-0.8h44.2c0.4,0,0.8,0.4,0.8,0.8v17.4
				C75.6,43.2,75.3,43.6,74.8,43.6z M31.5,41.9H74V26.1H31.5V41.9z"/>
		</g>
		<g>
			<path class="st0" d="M44.3,26.1c-0.2,0-0.5-0.1-0.6-0.3l-8.5-9.9v9.4c0,0.4-0.4,0.8-0.8,0.8s-0.9-0.3-0.9-0.8V13.8
				c0-0.3,0.2-0.6,0.5-0.8c0.3-0.1,0.7,0,0.9,0.2l10,11.5c0.3,0.3,0.3,0.9-0.1,1.1C44.7,26.1,44.5,26.1,44.3,26.1z"/>
		</g>
		<g>
			<path class="st0" d="M49.8,26.1c-0.2,0-0.5-0.1-0.6-0.3l-8.5-9.9v3.7c0,0.4-0.4,0.8-0.8,0.8s-0.8-0.4-0.8-0.8v-5.8
				c0-0.3,0.2-0.6,0.5-0.8c0.3-0.1,0.7,0,0.9,0.2l10,11.5c0.3,0.3,0.3,0.9-0.1,1.1C50.2,26.1,50,26.1,49.8,26.1z"/>
		</g>
		<g>
			<path class="st0" d="M55.3,26.1c-0.2,0-0.5-0.1-0.6-0.3l-8.5-9.9v3.7c0,0.4-0.4,0.8-0.8,0.8s-0.9-0.3-0.9-0.8v-5.8
				c0-0.3,0.2-0.6,0.5-0.8c0.3-0.1,0.7,0,0.9,0.2l10,11.5c0.3,0.3,0.3,0.9-0.1,1.1C55.7,26.1,55.5,26.1,55.3,26.1z"/>
		</g>
		<g>
			<path class="st0" d="M27.4,66.4H8.6c-0.4,0-0.8-0.4-0.8-0.8s0.4-0.8,0.8-0.8h18.7c0.4,0,0.8,0.4,0.8,0.8S27.8,66.4,27.4,66.4z"/>
		</g>
		<g>
			<rect x="34.3" y="29" class="st1" width="2" height="10.6"/>
		</g>
		<g>
			<rect x="39.3" y="29" class="st1" width="2" height="10.6"/>
		</g>
		<g>
			<rect x="44.3" y="29" class="st1" width="2" height="10.6"/>
		</g>
		<g>
			<rect x="49.3" y="29" class="st1" width="2" height="10.6"/>
		</g>
		<g>
			<rect x="54.3" y="29" class="st1" width="2" height="10.6"/>
		</g>
		<g>
			<rect x="59.3" y="29" class="st1" width="2" height="10.6"/>
		</g>
		<g>
			<rect x="64.3" y="29" class="st1" width="2" height="10.6"/>
		</g>
		<g>
			<rect x="69.3" y="29" class="st1" width="2" height="10.6"/>
		</g>
		<g>
			<path class="st0" d="M28.3,66.4h-13c-0.4,0-0.8-0.4-0.8-0.8s0.4-0.8,0.8-0.8h12.2L23.9,1.5h-4.3l-3,52.9c0,0.4-0.4,0.8-0.8,0.7
				c-0.4,0-0.8-0.4-0.7-0.8l3-53.6c0-0.4,0.4-0.7,0.8-0.7h5.8c0.4,0,0.8,0.3,0.8,0.7l3.6,64.9c0,0.2-0.1,0.4-0.2,0.6
				C28.7,66.3,28.5,66.4,28.3,66.4z"/>
		</g>
		<g>
			<path class="st0" d="M16.5,66.4H3.9c-0.2,0-0.4-0.1-0.6-0.3c-0.1-0.2-0.2-0.4-0.2-0.6l3.4-46.8c0-0.4,0.4-0.7,0.8-0.7H13
				c0.4,0,0.8,0.3,0.8,0.7l3.4,46.8c0,0.2-0.1,0.4-0.2,0.6C16.9,66.3,16.7,66.4,16.5,66.4z M4.7,64.8h10.9l-3.3-45.2H8.1L4.7,64.8z"
				/>
		</g>
		<g>
			<rect x="30.4" y="46.7" class="st1" width="5.9" height="2.4"/>
		</g>
		<g>
			<rect x="42.9" y="46.7" class="st1" width="5.9" height="2.4"/>
		</g>
	</g>
</g>
</svg>
