<?xml version="1.0" encoding="utf-8"?>
<!-- Generator: Adobe Illustrator 21.1.0, SVG Export Plug-In . SVG Version: 6.00 Build 0)  -->
<svg version="1.1" id="Слой_1" xmlns="http://www.w3.org/2000/svg" xmlns:xlink="http://www.w3.org/1999/xlink" x="0px" y="0px"
	 viewBox="0 0 69.1 61.2" style="enable-background:new 0 0 69.1 61.2;" xml:space="preserve">
<style type="text/css">
	.st0{fill:#FFFFFF;}
</style>
<g id="Слой_4">
</g>
<g id="Слой_1_1_">
</g>
<g id="Слой_2">
</g>
<g id="Слой_3">
	<g>
		<g>
			<path class="st0" d="M4.8,54C4.4,54,4,53.6,4,53.2v-8.3c0-0.4,0.4-0.8,0.8-0.8H13c0.4,0,0.8,0.4,0.8,0.8c0,0.4-0.4,0.8-0.8,0.8
				H5.6v7.5C5.6,53.7,5.3,54,4.8,54z"/>
		</g>
		<g>
			<path class="st0" d="M4.8,45.7H2.9c-0.4,0-0.7-0.3-0.8-0.6c-0.1-0.3,0.1-0.7,0.5-0.9l10.1-4.6c0.4-0.2,0.9,0,1.1,0.4
				s0,0.9-0.4,1.1l-7.8,3.5c0,0.1,0.1,0.2,0.1,0.3C5.6,45.4,5.3,45.7,4.8,45.7z"/>
		</g>
		<g>
			<path class="st0" d="M20.4,29.3h-2.5c-0.4,0-0.8-0.4-0.8-0.8s0.4-0.8,0.8-0.8h1.7V26c0-0.4,0.4-0.8,0.8-0.8h1.7v-1.7
				c0-0.4,0.4-0.8,0.8-0.8h1.7V21c0-0.4,0.4-0.8,0.8-0.8h1.7v-1.7c0-0.4,0.4-0.8,0.8-0.8h1.7V16c0-0.4,0.4-0.8,0.8-0.8h22.9
				c0.4,0,0.8,0.4,0.8,0.8s-0.4,0.8-0.8,0.8H31.2v1.7c0,0.4-0.4,0.8-0.8,0.8h-1.7V21c0,0.4-0.4,0.8-0.8,0.8h-1.7v1.7
				c0,0.4-0.4,0.8-0.8,0.8h-1.7V26c0,0.4-0.4,0.8-0.8,0.8h-1.7v1.7C21.2,28.9,20.9,29.3,20.4,29.3z"/>
		</g>
		<g>
			<path class="st0" d="M53.8,57.5c-0.5,0-0.8-0.4-0.8-0.8v-1.8h-1.8c-0.5,0-0.8-0.4-0.8-0.8v-1.7h-1.8c-0.5,0-0.8-0.4-0.8-0.8v-1.7
				H46c-0.5,0-0.8-0.4-0.8-0.8v-1.7h-9.8c-0.5,0-0.8-0.4-0.8-0.8c0-0.4,0.4-0.8,0.8-0.8H46c0.5,0,0.8,0.4,0.8,0.8v1.7h1.8
				c0.5,0,0.8,0.4,0.8,0.8v1.7h1.8c0.5,0,0.8,0.4,0.8,0.8v1.7h1.8c0.5,0,0.8,0.4,0.8,0.8v2.6C54.6,57.1,54.2,57.5,53.8,57.5z"/>
		</g>
		<g>
			<path class="st0" d="M24.2,41.8H13.4c-0.4,0-0.8-0.4-0.8-0.8c0-0.4,0.4-0.8,0.8-0.8h10.8c0.4,0,0.8,0.4,0.8,0.8
				C25,41.4,24.7,41.8,24.2,41.8z"/>
		</g>
		<g>
			<path class="st0" d="M13,54.3c-0.4,0-0.8-0.4-0.8-0.8V0.8C12.2,0.4,12.6,0,13,0h40.7c0.4,0,0.8,0.4,0.8,0.8v35
				c0,0.4-0.4,0.8-0.8,0.8s-0.8-0.4-0.8-0.8V1.6H13.8v51.9C13.8,54,13.5,54.3,13,54.3z"/>
		</g>
		<g>
			<path class="st0" d="M34.5,54.6H0.8c-0.4,0-0.8-0.4-0.8-0.8S0.4,53,0.8,53h33.7c0.4,0,0.8,0.4,0.8,0.8S35,54.6,34.5,54.6z"/>
		</g>
		<g>
			<path class="st0" d="M20,54.5h-2.5c-0.4,0-0.8-0.4-0.8-0.8s0.4-0.8,0.8-0.8h1.7v-1.7c0-0.4,0.4-0.8,0.8-0.8h1.7v-1.7
				c0-0.4,0.4-0.8,0.8-0.8h1.7v-1.7c0-0.4,0.4-0.8,0.8-0.8h1.7v-1.8c0-0.4,0.4-0.8,0.8-0.8h1.7v-1.7c0-0.4,0.4-0.8,0.8-0.8h4.5
				c0.4,0,0.8,0.4,0.8,0.8c0,0.4-0.4,0.8-0.8,0.8h-3.7v1.7c0,0.4-0.4,0.8-0.8,0.8h-1.7v1.7c0,0.4-0.4,0.8-0.8,0.8h-1.7v1.7
				c0,0.4-0.4,0.8-0.8,0.8h-1.7v1.7c0,0.4-0.4,0.8-0.8,0.8h-1.7v1.7C20.8,54.1,20.5,54.5,20,54.5z"/>
		</g>
		<g>
			<path class="st0" d="M42.5,36.4c-0.5,0-0.8-0.4-0.8-0.8v-1.3h-1.8c-0.5,0-0.8-0.4-0.8-0.8v-1.7h-1.8c-0.5,0-0.8-0.4-0.8-0.8v-1.7
				H13.4c-0.5,0-0.8-0.4-0.8-0.8s0.4-0.8,0.8-0.8h23.9c0.5,0,0.8,0.4,0.8,0.8v1.7h1.8c0.5,0,0.8,0.4,0.8,0.8v1.7h1.8
				c0.5,0,0.8,0.4,0.8,0.8v2.1C43.3,36.1,43,36.4,42.5,36.4z"/>
		</g>
		<g>
			<rect x="35" y="51.6" class="st0" width="10.8" height="1.6"/>
		</g>
		<g>
			<path class="st0" d="M53.2,29.3H42.4c-0.4,0-0.8-0.4-0.8-0.8s0.4-0.8,0.8-0.8h10.8c0.4,0,0.8,0.4,0.8,0.8S53.7,29.3,53.2,29.3z"
				/>
		</g>
		<g>
			<rect x="60" y="38.7" class="st0" width="1.6" height="17.8"/>
		</g>
		<g>
			<g>
				<path class="st0" d="M66,58.1c-0.4,0-0.8-0.4-0.8-0.8V36.6H35.6V57c0,0.4-0.4,0.8-0.8,0.8c-0.4,0-0.8-0.4-0.8-0.8V35.8
					c0-0.4,0.4-0.8,0.8-0.8H66c0.4,0,0.8,0.4,0.8,0.8v21.5C66.8,57.7,66.5,58.1,66,58.1z"/>
			</g>
			<g>
				<path class="st0" d="M66.4,61.2h-32c-1.5,0-2.7-1.2-2.7-2.7v-1.2c0-0.4,0.4-0.8,0.8-0.8h35.8c0.4,0,0.8,0.4,0.8,0.8v1.2
					C69.2,60,67.9,61.2,66.4,61.2z M33.3,58.1v0.4c0,0.6,0.5,1.1,1.1,1.1h32c0.6,0,1.1-0.5,1.1-1.1v-0.4H33.3z"/>
			</g>
			<g>
				<path class="st0" d="M65.8,39.5H35c-0.4,0-0.8-0.4-0.8-0.8c0-0.4,0.4-0.8,0.8-0.8h30.8c0.4,0,0.8,0.4,0.8,0.8
					C66.6,39.1,66.3,39.5,65.8,39.5z"/>
			</g>
			<g>
				<polyline class="st0" points="44.9,57.3 44.9,58.8 56,58.8 56,57.3 				"/>
			</g>
		</g>
		<g>
			<rect x="39.2" y="41.9" class="st0" width="21.6" height="1.6"/>
		</g>
		<g>
			<path class="st0" d="M53.2,5.1H13c-0.4,0-0.8-0.4-0.8-0.8s0.4-0.8,0.8-0.8h40.2c0.4,0,0.8,0.4,0.8,0.8S53.7,5.1,53.2,5.1z"/>
		</g>
		<g>
			<path class="st0" d="M19,4.4c-0.4,0-0.8-0.4-0.8-0.8V1.2c0-0.4,0.4-0.8,0.8-0.8s0.8,0.4,0.8,0.8v2.4C19.8,4.1,19.4,4.4,19,4.4z"
				/>
		</g>
		<g>
			<path class="st0" d="M26.1,4.4c-0.4,0-0.8-0.4-0.8-0.8V1.2c0-0.4,0.4-0.8,0.8-0.8s0.8,0.4,0.8,0.8v2.4
				C26.9,4.1,26.6,4.4,26.1,4.4z"/>
		</g>
		<g>
			<path class="st0" d="M33.3,4.4c-0.4,0-0.8-0.4-0.8-0.8V1.2c0-0.4,0.4-0.8,0.8-0.8c0.4,0,0.8,0.4,0.8,0.8v2.4
				C34.1,4.1,33.7,4.4,33.3,4.4z"/>
		</g>
		<g>
			<path class="st0" d="M40.4,4.4c-0.4,0-0.8-0.4-0.8-0.8V1.2c0-0.4,0.4-0.8,0.8-0.8c0.4,0,0.8,0.4,0.8,0.8v2.4
				C41.2,4.1,40.9,4.4,40.4,4.4z"/>
		</g>
		<g>
			<path class="st0" d="M47.6,4.4c-0.4,0-0.8-0.4-0.8-0.8V1.2c0-0.4,0.4-0.8,0.8-0.8c0.4,0,0.8,0.4,0.8,0.8v2.4
				C48.4,4.1,48,4.4,47.6,4.4z"/>
		</g>
	</g>
</g>
</svg>
